<?xml version="1.0" encoding="utf-8"?>
<!-- Generator: Adobe Illustrator 23.0.0, SVG Export Plug-In . SVG Version: 6.00 Build 0)  -->
<svg version="1.1" id="레이어_1" xmlns="http://www.w3.org/2000/svg" xmlns:xlink="http://www.w3.org/1999/xlink" x="0px"
	 y="0px" viewBox="0 0 328 104.6" style="enable-background:new 0 0 328 104.6;" xml:space="preserve">
<style type="text/css">
	.st0{fill:#1FBCE0;}
	.st1{fill:#112A32;}
</style>
<polygon class="st0" points="52.4,3.3 30.9,0.8 6.4,3.8 6.6,17.4 40.7,21.4 40.8,27.7 28.6,29.2 5.9,26.6 5.9,32.3 28.5,34.9 
	53.9,31.8 53.6,17 19.5,13.2 19.5,7.9 31.2,6.4 52.6,8.9 "/>
<polygon class="st0" points="64.1,32.5 63.7,3.8 82.9,0.9 96.8,3 110.5,0.8 129.6,3.6 130,32.4 117.2,33.8 116.9,7.3 110.5,6.4 
	103.1,7.6 103.5,33.9 90.7,33.9 90.4,7.6 83.1,6.5 76.6,7.5 76.9,34 "/>
<polygon class="st1" points="186.8,8.4 186.8,2.9 165.2,0.4 140.8,3.3 141.1,31.7 165.7,34.4 187.2,31.8 187.2,26.2 165.6,28.8 
	154.1,27.5 153.8,7.5 165.4,6 "/>
<path class="st1" d="M248.8,2.9L223.2,0l-25.5,3.1l0.4,28.1l25.8,2.9l25.3-3.1L248.8,2.9z M223.6,28.5L211,27l-0.3-19.9l12.6-1.6
	L235.9,7l0.2,19.9L223.6,28.5z"/>
<polygon class="st1" points="273.5,33.1 260.8,31.3 260.5,3 279.7,0.1 293.5,2.2 307.1,0 326.4,2.8 326.7,31.4 314,33 313.7,6.5 
	307.2,5.5 299.9,6.7 300.2,33 287.4,33 287.1,6.8 279.9,5.6 273.3,6.7 "/>
<g>
	<polygon class="st0" points="8.2,74.9 17.7,74.9 17.7,82.4 26.1,90.4 18.3,90.4 13,85.6 7.7,90.5 0,90.4 8.3,82.4 	"/>
	<polygon class="st0" points="27.9,74.6 28.2,90.7 37.5,90.7 37.5,84.5 41.1,84.5 41.1,90.9 50.4,90.9 50.2,74.3 40.9,74.3 
		40.9,80.2 37.2,80.2 37.2,74.5 	"/>
	<path class="st0" d="M50.4,92.3l-21.2,1.4L8,92.5l0.1,9.8l21.3,2.4l21.1-2.5L50.4,92.3z M41.1,99l-11.8,1.5l-11.9-1.3v-2.7
		l11.8,1.3l11.8-1.5L41.1,99L41.1,99z"/>
</g>
<g>
	<polygon class="st0" points="55.8,85.8 107.3,85.6 107.3,89.3 86.5,89.4 86.5,90.6 102.5,90.5 102.5,98.3 70.6,98.4 70.6,99.4 
		81.8,100.7 95.8,99.1 102.6,99 102.6,102.1 81.9,104.4 60.9,102.1 60.8,95.2 92.8,95.1 92.8,94.1 60.8,94.2 60.8,90.7 76.6,90.7 
		76.6,89.3 55.8,89.4 	"/>
	<path class="st0" d="M102.3,74.8L60.6,75l0.1,9.6l41.7-0.1L102.3,74.8z M92.6,80.9L70.4,81v-2.3l22.2-0.1V80.9z"/>
</g>
<g>
	<polygon class="st1" points="113.4,74.6 141.2,74.5 141.3,78.6 132.4,78.6 132.4,82.3 137.2,85.8 142.5,85.8 142.6,89.9 
		132.1,89.9 127.6,86.5 123.1,89.9 112.5,90 112.5,85.9 117.9,85.9 122.5,82.4 122.5,78.6 113.4,78.6 	"/>
	<polygon class="st1" points="150.9,84 141.1,84.1 141.1,80 150.9,79.9 150.8,74 160.8,74 161,89.9 150.9,89.9 	"/>
	<path class="st1" d="M160.8,94.7l-7.1-3.2l-26.9,0.1l-7,3.2v5.4l7.1,3.2l26.9-0.1l7.1-3.2L160.8,94.7z M151,98.4l-2.2,0.9
		l-17.1,0.1l-1.9-0.9v-1.9l1.9-0.9H149l1.9,0.8V98.4z"/>
</g>
<g>
	<path class="st1" d="M213.8,74.4l-10.4,0l0.1,4.4h-21.3l0-4.3H172l0.1,16.3l41.8-0.2L213.8,74.4z M182.4,86.6l-0.1-3.7l21.3-0.1
		l0.1,3.7L182.4,86.6z"/>
	<polygon class="st1" points="188,97.4 188,91.8 198.2,91.8 198.2,97.4 218.8,94.9 218.8,99.4 193.2,102.5 167.5,99.6 167.5,95.1 	
		"/>
</g>
<g>
	<polygon class="st1" points="269,77.8 269,74.2 227.6,74.4 227.8,87.4 243.5,87.4 243.5,88.7 223,88.7 223,92.6 274.5,92.4 
		274.5,88.6 253.9,88.6 253.9,87.4 270,87.3 269.9,83.6 237.6,83.8 237.6,82.5 268.2,82.5 268.1,79 237.5,79.1 237.5,77.9 	"/>
	<path class="st1" d="M270,96.4l-6.4-2.8l-29.5,0.1l-6.4,2.9v3.8l6.4,2.8l29.7-0.1l6.3-2.9L270,96.4z M260.2,98.8l-1.3,0.6l-20.2,0
		l-1.2-0.5v-1.1l1.2-0.5l20.2-0.1l1.2,0.5V98.8z"/>
</g>
<g>
	<path class="st1" d="M300.9,73.9l-10.3,0l0.2,8.6l-6.9,4.2h-3.7v4.1h9.2l6.7-4l6.6,4c0,0,9.2,0,9.2,0s0-4.2,0-4.2l-3.9,0l-6.9-4.1
		L300.9,73.9z"/>
	<polygon class="st1" points="326.6,73.3 316.7,73.4 316.9,94 327,94 	"/>
	<polygon class="st1" points="286.6,93.6 286.7,101.2 307.5,103.6 328,101.1 328,96.8 307.4,99.3 296.9,98.1 296.9,93.6 	"/>
</g>
</svg>
