<svg id="레이어_1" data-name="레이어 1" xmlns="http://www.w3.org/2000/svg" viewBox="0 0 82.08 86.4">
    <defs>
        <style>.cls-1{fill:#2db5ae;}.cls-1,.cls-2{fill-rule:evenodd;}.cls-2{fill:#fff;}</style>
    </defs>
    <title>mobile</title>
    <path class="cls-1" d="M265,352.74h82.08v86.4H265Z" transform="translate(-265 -352.74)"/>
    <path class="cls-2"
          d="M318.28,393.06l.72,2.88h.72c.7,2-.18,8.89-.72,10.08h-.72v1.44l-1.44.72-.72,2.16h.72c2-3,6.12-3.89,7.2-7.92,3.74-3.58-.22-9.95-.72-13.68l1.44-.72c.81-.88,5.52-2.35,7.92-1.44v.72h1.44V388h1.44l.72,2.16,1.44.72v7.2H337l-.72,3.6-1.44.72v1.44L332,406l-.72,1.44H329.8l-.72,1.44-2.16.72v.72h-1.44v.72H324v.72l-3.6.72v.72h2.16v-.72l7.2-1.44v-.72H332v-.72l4.32-1.44.72-1.44h1.44l.72-1.44,3.6-2.88.72-2.88h.72v-2.16c.41-1.15,1.44-5,.72-7.2h-.72l-.72-3.6-4.32-3.6v-.72c-1.65-1.1-9.45-3.29-13-2.16v.72l-4.32.72v.72h-1.44V383c-1.08.69-1.77.58-3.6.72-1.62-2.5-4.17-2.39-7.2-3.6v-.72c-2.79-1.1-14.92-3.47-19.44-2.16v.72h-4.32v.72H283v.72h-1.44v.72H279.4v.72H278v.72h-1.44L275.8,383h-1.44l-.72,1.44-2.88,2.16V388l-1.44.72c-.84,1.3,0,1.61-1.44,2.88l-.72,9.36c3,9.23,11.66,14.61,23,10.8h2.88v-.72l2.88-.72v-.72l2.88-.72.72-1.44H301l1.44-2.16h1.44l2.16-2.88,2.16-.72,5-5.76h1.44v-.72A8,8,0,0,1,318.28,393.06Z"
          transform="translate(-265 -352.74)"/>
    <path class="cls-1"
          d="M288.76,383.7h13.68A81.49,81.49,0,0,1,312.52,388v.72h-.72l-4.32,5H306l-3.6,4.32c-6.29,4.51-14.65,10.76-25.2,6.48a15.57,15.57,0,0,0-2.88-3.6c-.08-2.35-.41-6,.72-7.2.88-3.44,4.4-6.43,7.2-7.92h1.44v-.72l5-.72Z"
          transform="translate(-265 -352.74)"/>
</svg>