<svg id="레이어_1" data-name="레이어 1" xmlns="http://www.w3.org/2000/svg" viewBox="0 0 249.84 79.2">
    <defs>
        <style>
            .cls-1{fill:#2db5ae;}.cls-1,.cls-2,.cls-3,.cls-4{fill-rule:evenodd;}.cls-2{fill:#fff;}.cls-3{fill:#fdfdfe;}.cls-4{fill:none;}
        </style>
    </defs>
    <title>whiteoulim [변환됨]</title>
    <path class="cls-1" d="M176.12,356.12h75.6v79.2h-75.6Z" transform="translate(-176.12 -356.12)"/>
    <path class="cls-2"
          d="M290.6,379.16a71.32,71.32,0,0,1,.72,11.52h-7.2V384.2c-2.52-1.33-3.69-1.49-7.92-1.44l-.72,2.16h-.72v4.32l2.16,1.44v.72h1.44l.72,1.44,2.88.72.72,1.44h1.44v.72l2.88.72,1.44,2.16,2.16.72v1.44c3.79,3.21,1.56,12.16,0,15.84-6.73,3.79-11.94,4.83-20.16,1.44-2.13-3.94-2.89-6.52-2.88-13h7.92V413h.72v.72c7.17.92,9,.88,8.64-7.92-1.78-1-2.35-2.71-3.6-3.6H279.8l-.72-1.44-2.16-.72v-.72c-3.22-2.07-6.84-2.3-7.92-6.48-3.1-2.95-.72-9,0-12.24l5-3.6h11.52C287.16,377.52,288.6,378.71,290.6,379.16Z"
          transform="translate(-176.12 -356.12)"/>
    <path class="cls-2"
          d="M359.72,392.84h-7.2v-7.92c-.71-.41-1.19-1.29-1.44-1.44h-1.44v-.72c-2.57-.91-6.53,1.15-7.2,2.16-1.13,1.7-.72,5.2-.72,7.92,0,6.43-.34,14.13.72,19.44,2.13,1,5,3.33,7.92,1.44V413l1.44-.72v-1.44h.72v-7.2h7.2v7.92c-.52,1.6-1.7,3-2.16,5-1.32.74-3,2.37-4.32,2.88h-3.6v.72h-5v-.72H341v-.72h-1.44V418l-2.16-.72-.72-2.16H336v-1.44h-.72v-2.88h-.72v-9.36c0-9.08-1.42-21.14,5.76-23v-.72c.72-.5,10.43-1.39,12.24-.72v.72l4.32,1.44.72,2.16L359,382C360.16,384.28,359.73,389.5,359.72,392.84Z"
          transform="translate(-176.12 -356.12)"/>
    <path class="cls-3"
          d="M371.24,377c6.45-.24,13.77-.59,15.12,4.32,2.38,2,2.16,5.59,2.16,10.08,0,7.8-.32,16.29-.72,23-1.76,1.11-.45.88-1.44,2.16l-1.44.72V418c-1.15.82-1.66,0-2.88,1.44-6.53.36-15,1.31-16.56-5-1.82-1.82-1.44-5.71-1.44-9.36,0-7.72,0-16.42.72-23,1.76-1.1,1.12-2.07,2.16-2.88h1.44l.72-1.44h2.16Z"
          transform="translate(-176.12 -356.12)"/>
    <path class="cls-2"
          d="M296.36,377.72H308.6c.61.82-.09.1.72.72l2.16,18h.72c.9,3.08-.39,7.37,1.44,9.36l2.16-18h.72c.91-3.08-.4-7.36,1.44-9.36,1.73-1.58,8.43-.79,11.52-.72v41.76H323v-23c0-2.67.58-7.16-.72-8.64.07,4.55-1.13,8.15-2.16,11.52v4.32h-.72v3.6h-.72v3.6H318c-.84,2.68.21,6.14-1.44,7.92-1.15,1.07-4.24.79-6.48.72v-.72h-.72c0-4.08-1.19-7.72-2.16-10.8v-3.6h-.72V400h-.72v-3.6H305c-.83-2.66.17-5.48-1.44-7.2v30.24h-7.2Z"
          transform="translate(-176.12 -356.12)"/>
    <path class="cls-2"
          d="M392.84,377.72h12.24a21.36,21.36,0,0,0,1.44,7.2v5h.72v5H408c.9,3.08-.35,8.12,1.44,10.08l4.32-27.36H426v41.76h-7.2v-21.6c0-2.54.51-6.53-.72-7.92l-5,29.52h-7.2l-3.6-20.16h-.72c-.9-3,.34-6-1.44-7.92v28.08h-7.2Z"
          transform="translate(-176.12 -356.12)"/>
    <path class="cls-2"
          d="M228,405.8a6.12,6.12,0,0,1,1.44-2.88h.72l.72-3.6h.72c1.21-3.86-1.58-7.48-2.16-10.08,1.88-1,1.22-1.27,4.32-1.44v-.72h3.6v.72c4.55,1.72,6.06,2.87,5.76,9.36h-.72l-.72,3.6-1.44.72v1.44l-1.44.72-2.16,2.88h-1.44l-.72,1.44H233c-1.84,1-3.24,2.34-5.76,2.88v.72h1.44c1.71-1.48,3.52-.53,5.76-1.44v-.72h1.44v-.72l3.6-.72.72-1.44,2.88-.72,2.16-2.88,1.44-.72v-1.44l1.44-.72v-2.16h.72c.68-2.11.17-7.66-.72-8.64-1.05-4.35-8.58-10.14-15.84-7.92V382H229.4v.72H228v.72h-1.44l-.72,1.44c-1.39.36-1-.44-1.44-.72-2.32-.63-3.31-2.12-5-2.88l-6.48-1.44v-.72h-5.76v-.72h-5v.72h-5.76v.72H193.4v.72h-2.16v.72H189.8V382h-1.44l-5.76,4.32v1.44l-2.16,1.44v1.44h-.72c-1.22,2.72-1.94,9.41,0,11.52,1.06,5,5.16,5.52,7.92,8.64l8.64.72,9.36-2.88V408l2.16-.72.72-1.44H210l1.44-2.16h1.44l4.32-5h1.44v-.72l2.88-2.16,1.44-2.16h2.16v.72h.72c.42,3.79,1.33,9.07-.72,12.24h-.72l-2.16,2.88h.72A10,10,0,0,1,228,405.8Z"
          transform="translate(-176.12 -356.12)"/>
    <path class="cls-4"
          d="M374.84,382.76c-1.83,2.14-3.39,1.67-3.6,5.76-1.09,1.2-.72,4.2-.72,6.48A84.47,84.47,0,0,0,372,412.28a14.66,14.66,0,0,0,7.2,1.44,9.52,9.52,0,0,1,2.16-2.88v-25.2c-1.53-.87-1.57-1.62-3.6-2.16v-.72Z"
          transform="translate(-176.12 -356.12)"/>
    <path class="cls-1"
          d="M219.32,387.8V390l-5.76,4.32-1.44,2.16h-1.44L207.8,400h-1.44l-.72,1.44H204.2l-.72,1.44H202v.72h-2.16v.72H197c-3.26,1-5.08.16-8.64,0-1.05-1.71-3-3-3.6-5l.72-6.48,1.44-.72v-1.44c2-2.77,14.33-8.39,20.88-6.48v.72h4.32C214.56,385.7,216.69,387.19,219.32,387.8Z"
          transform="translate(-176.12 -356.12)"/>
</svg>