<svg id="레이어_1" data-name="레이어 1" xmlns="http://www.w3.org/2000/svg" viewBox="0 0 249.84 79.2">
    <defs>
        <style>.cls-1{fill:#fff;}.cls-1,.cls-2{fill-rule:evenodd;}.cls-2{fill:none;}</style>
    </defs>
    <title>white-fulloulim [변환됨]</title>
    <path class="cls-1" d="M176.12,356.12h75.6v79.2h-75.6Z" transform="translate(-176.12 -356.12)"/>
    <path class="cls-1"
          d="M292,390.68h-7.92V384.2c-2.39-1.26-3.14-1.48-7.2-1.44-.82.82,0,.29-1.44.72-.23,4-.64,3.87.72,7.2l13,7.2v.72l2.16,1.44v1.44H292l.72,10.8H292l-.72,3.6-4.32,3.6c-4,.28-11.6,1.95-14.4-.72-2.81-.63-4.22-2.3-4.32-5.76-1.28-1.39-.79-6-.72-8.64h7.92v7.92c2.52,1.33,3.69,1.49,7.92,1.44,1.26-2.39,1.48-3.14,1.44-7.2-.82-.82-.29,0-.72-1.44L282,403.64v-.72h-1.44l-.72-1.44h-1.44l-.72-1.44-2.88-.72-.72-1.44H272.6v-.72a5.9,5.9,0,0,0-2.88-1.44c-.7-2.67-3.76-7.41-2.16-12.24h.72v-2.16H269l.72-2.16,2.16-.72v-.72H274V377c3.43-1.1,14.33.34,15.84,1.44l.72,1.44C292.56,381.8,292.12,386.79,292,390.68Z"
          transform="translate(-176.12 -356.12)"/>
    <path class="cls-1"
          d="M351.8,384.2c-2.26-.42-3.21-1.17-5.76-1.44-1.62,1.8-2.76.69-3.6,3.6-1.17,1.29-.72,4.8-.72,7.2v16.56h.72l.72,2.88c4,.82,5.35.77,8.64-.72l.72-8.64h7.92c0,4.93-1.35,8.38-2.16,12.24L355.4,418v.72h-2.16v.72h-2.16v.72c-2.26.7-6-.34-7.2-.72H341a33.8,33.8,0,0,1-4.32-2.88c-3.38-4.88-2.16-15.75-2.16-23.76v-7.92h.72l.72-3.6,2.88-2.16v-.72c1.21-.83,1.65,0,2.88-1.44h10.8v.72l3.6.72,1.44,2.16h.72c1.77,2.71,2.15,7.78,2.16,12.24-1.75.66-4.46.75-7.2.72Z"
          transform="translate(-176.12 -356.12)"/>
    <path class="cls-1"
          d="M370.52,377c7.42-.24,15.1-.75,16.56,5,2.65,2.56,2.16,12.53,2.16,18,0,7.14-.62,16.24-5,18.72l-4.32.72c-1.15.4-5,1.45-7.2.72-1.06-.35-3.77-1.63-5-2.16l-3.6-5v-2.88h-.72V386.36c.54-1.79,1.71-3.72,2.16-5.76Z"
          transform="translate(-176.12 -356.12)"/>
    <path class="cls-1"
          d="M296.36,377.72h13L311.48,395h.72c1,3.32-.54,7.93,1.44,10.08l3.6-27.36h13v41.76h-7.92V400c0-2.42.44-5.9-.72-7.2l-4.32,26.64h-7.92a21.47,21.47,0,0,0-1.44-7.2v-3.6h-.72v-3.6h-.72v-3.6h-.72v-3.6H305c-.9-3,.34-6-1.44-7.92v29.52h-7.2Z"
          transform="translate(-176.12 -356.12)"/>
    <path class="cls-1"
          d="M392.84,377.72h12.24c.7,8.72,3.42,17.09,3.6,26.64h.72v-1.44c1.82-2.11.52-6.21,1.44-9.36,1.33-4.56,2-10.86,2.88-15.84H426v41.76h-7.2v-21.6c0-2.54.51-6.53-.72-7.92l-5,29.52h-7.2a151.9,151.9,0,0,0-4.32-20.16c-.84-2.68.2-6.14-1.44-7.92v28.08h-7.2Z"
          transform="translate(-176.12 -356.12)"/>
    <path class="cls-2"
          d="M229.4,388.52c2.25-.47,5.33-2.6,8.64-1.44v.72l2.88.72c1.26,2.78,2.15,4.15,2.16,8.64h-.72l-.72,3.6h-.72v1.44l-3.6,2.88-.72,1.44h-1.44l-.72,1.44-2.16.72v.72l-3.6.72v.72h2.88v-.72l4.32-.72v-.72l4.32-1.44v-.72h1.44l.72-1.44c7-4.74,6.86-7.05,5.76-17.28h-.72l-.72-2.16-1.44-.72v-.72c-1.76-1.27-9.06-4.13-13-2.88-1.43.46-6.54,3.89-7.92,3.6v-.72l-2.88-.72v-.72L215,380.6v-.72h-2.88v-.72H204.2c-7.43,0-13.66,1.25-18,4.32l-2.88,3.6-2.16,1.44V390h-.72c-.83,1.47,0,1.61-1.44,2.88l-.72,5.76,2.16,6.48L184,408v.72l4.32,1.44v.72l6.48.72v-.72h5v-.72H202v-.72l4.32-1.44v-.72h1.44l1.44-2.16h1.44l1.44-2.16h1.44l5-5.76H220v-.72c1.71-1.42,2.2-2.46,5-2.88l.72,2.16h.72l-.72,9.36h-.72v1.44c-.21.33-1,.66-1.44,1.44h1.44l5.76-6.48.72-6.48C230.8,392.51,229.65,392.28,229.4,388.52Z"
          transform="translate(-176.12 -356.12)"/>
    <path class="cls-2"
          d="M372.68,413a15.24,15.24,0,0,0,7.2,0l.72-2.16c1.16-1.3.72-4.79.72-7.2v-18c-4-2.41-3.54-3.54-8.64-1.44-2,4.52-1.44,12.78-1.44,19.44v7.2l1.44.72Z"
          transform="translate(-176.12 -356.12)"/>
    <path class="cls-1"
          d="M219.32,387.8V390c-1.75,1-2.35,2.7-3.6,3.6-7.89,5.69-13.44,13.28-27.36,10.8l-3.6-4.32c0-4,.83-5.72,1.44-8.64l3.6-2.88v-.72c2.53-1.69,13.91-5.22,19.44-3.6v.72h3.6C215,385.66,216.76,387.23,219.32,387.8Z"
          transform="translate(-176.12 -356.12)"/>
</svg>